<?xml version="1.0" encoding="UTF-8" standalone="no"?>
<svg
   xmlns:dc="http://purl.org/dc/elements/1.1/"
   xmlns:cc="http://creativecommons.org/ns#"
   xmlns:rdf="http://www.w3.org/1999/02/22-rdf-syntax-ns#"
   xmlns:svg="http://www.w3.org/2000/svg"
   xmlns="http://www.w3.org/2000/svg"
   xmlns:sodipodi="http://sodipodi.sourceforge.net/DTD/sodipodi-0.dtd"
   xmlns:inkscape="http://www.inkscape.org/namespaces/inkscape"
   version="1.1"
   width="24"
   height="24"
   viewBox="0 0 24 24"
   id="svg2312"
   sodipodi:docname="router-wireless_green.svg"
   inkscape:version="0.92.2 (5c3e80d, 2017-08-06)">
  <metadata
     id="metadata2318">
    <rdf:RDF>
      <cc:Work
         rdf:about="">
        <dc:format>image/svg+xml</dc:format>
        <dc:type
           rdf:resource="http://purl.org/dc/dcmitype/StillImage" />
        <dc:title></dc:title>
      </cc:Work>
    </rdf:RDF>
  </metadata>
  <defs
     id="defs2316" />
  <sodipodi:namedview
     pagecolor="#ffffff"
     bordercolor="#666666"
     borderopacity="1"
     objecttolerance="10"
     gridtolerance="10"
     guidetolerance="10"
     inkscape:pageopacity="0"
     inkscape:pageshadow="2"
     inkscape:window-width="1920"
     inkscape:window-height="1141"
     id="namedview2314"
     showgrid="false"
     inkscape:zoom="39.333333"
     inkscape:cx="11.936441"
     inkscape:cy="10.728814"
     inkscape:window-x="0"
     inkscape:window-y="240"
     inkscape:window-maximized="1"
     inkscape:current-layer="svg2312" />
  <path
     d="M20.2,5.9L21,5.1C19.6,3.7 17.8,3 16,3C14.2,3 12.4,3.7 11,5.1L11.8,5.9C13,4.8 14.5,4.2 16,4.2C17.5,4.2 19,4.8 20.2,5.9M19.3,6.7C18.4,5.8 17.2,5.3 16,5.3C14.8,5.3 13.6,5.8 12.7,6.7L13.5,7.5C14.2,6.8 15.1,6.5 16,6.5C16.9,6.5 17.8,6.8 18.5,7.5L19.3,6.7M19,13H17V9H15V13H5A2,2 0 0,0 3,15V19A2,2 0 0,0 5,21H19A2,2 0 0,0 21,19V15A2,2 0 0,0 19,13M8"
     id="path2310"
     style="stroke:none;stroke-opacity:1;fill:#0f7c00;fill-opacity:1" />
</svg>
