<?xml version="1.0" encoding="UTF-8" standalone="no"?>
<svg
   xmlns:dc="http://purl.org/dc/elements/1.1/"
   xmlns:cc="http://creativecommons.org/ns#"
   xmlns:rdf="http://www.w3.org/1999/02/22-rdf-syntax-ns#"
   xmlns:svg="http://www.w3.org/2000/svg"
   xmlns="http://www.w3.org/2000/svg"
   xmlns:sodipodi="http://sodipodi.sourceforge.net/DTD/sodipodi-0.dtd"
   xmlns:inkscape="http://www.inkscape.org/namespaces/inkscape"
   id="radio-tower"
   viewBox="0 0 1024 1026"
   width="24"
   height="24"
   version="1.1"
   inkscape:version="0.91 r13725"
   sodipodi:docname="ic_radiotower_green.svg">
  <metadata
     id="metadata3390">
    <rdf:RDF>
      <cc:Work
         rdf:about="">
        <dc:format>image/svg+xml</dc:format>
        <dc:type
           rdf:resource="http://purl.org/dc/dcmitype/StillImage" />
        <dc:title></dc:title>
      </cc:Work>
    </rdf:RDF>
  </metadata>
  <defs
     id="defs3388" />
  <sodipodi:namedview
     pagecolor="#ffffff"
     bordercolor="#666666"
     borderopacity="1"
     objecttolerance="10"
     gridtolerance="10"
     guidetolerance="10"
     inkscape:pageopacity="0"
     inkscape:pageshadow="2"
     inkscape:window-width="1920"
     inkscape:window-height="1141"
     id="namedview3386"
     showgrid="false"
     inkscape:zoom="39.416667"
     inkscape:cx="7.8773784"
     inkscape:cy="12"
     inkscape:window-x="0"
     inkscape:window-y="0"
     inkscape:window-maximized="1"
     inkscape:current-layer="radio-tower" />
  <path
     d="M306.838 391.74c15.868-16.307 15.868-42.732 0-59.038-20.52-21.116-30.643-48.417-30.705-76.124.062-27.77 10.183-55.04 30.705-76.186 15.868-16.337 15.868-42.764 0-59.07-7.934-8.183-18.272-12.274-28.706-12.274-10.37 0-20.804 4.03-28.738 12.213-36.266 37.298-54.633 86.434-54.57 135.318-.062 48.792 18.305 97.927 54.57 135.16 15.868 16.307 41.576 16.307 57.444 0zM149.093 34.14c-8.12-8.31-18.68-12.463-29.3-12.463-10.558 0-21.18 4.153-29.237 12.462C30.8 95.492.75 176.144.813 256.578c-.062 80.34 29.987 161.15 89.68 222.437 16.182 16.618 42.357 16.618 58.538 0 16.12-16.587 16.12-43.513 0-60.067-43.7-44.98-65.44-103.456-65.44-162.368s21.74-117.45 65.44-162.368c16.12-16.65 16.12-43.577.063-60.07zM513.03 360.847c57.352 0 103.957-46.574 103.957-103.956 0-57.38-46.605-103.954-103.956-103.954-57.38 0-103.955 46.573-103.955 103.955 0 57.383 46.575 103.957 103.956 103.957zm420.51-326.08c-16.182-16.618-42.356-16.618-58.476 0-16.18 16.587-16.18 43.513 0 60.068 43.668 44.918 65.41 103.456 65.41 162.368 0 58.85-21.806 117.387-65.474 162.306-16.117 16.617-16.117 43.574.062 60.067 8.06 8.31 18.616 12.463 29.237 12.463 10.557 0 21.177-4.154 29.235-12.463 59.726-61.287 89.774-142.096 89.65-222.437.128-80.278-29.92-161.087-89.646-222.373zM513.28 443.873c-26.488.062-53.04-6.466-77.09-19.43L235.057 960.59h95.21l54.818-63.973h255.89l53.978 63.973h95.272l-201.1-536.02c-23.74 12.775-49.73 19.303-75.844 19.303zm-.624 30.644L577.004 704.7H449.06l63.596-230.183zm-127.57 358.128l63.974-63.973h127.944l63.974 63.973H385.086zm332.108-710.603c-15.868 16.306-15.868 42.73 0 59.037 20.49 21.115 30.61 48.51 30.674 76.123-.062 27.77-10.183 55.102-30.674 76.187-15.868 16.336-15.868 42.763 0 59.068 7.87 8.184 18.242 12.213 28.737 12.213 10.31 0 20.742-4.028 28.676-12.212 36.298-37.234 54.665-86.433 54.54-135.255.125-48.792-18.18-97.927-54.54-135.16-15.805-16.307-41.544-16.307-57.412 0z"
     id="path3384"
     style="fill:#0f7c00;fill-opacity:1" />
</svg>
